<?xml version="1.0" encoding="UTF-8"?>
<!DOCTYPE svg
PUBLIC "-//W3C//DTD SVG 1.1//EN"
       "http://www.w3.org/Graphics/SVG/1.1/DTD/svg11.dtd">
<svg viewBox="29 -2 676 773" width="647px" height="775px" xmlns="http://www.w3.org/2000/svg" version="1.1">
   <rect width="105" height="20" x="48" y="160" style="fill:#007;stroke:black;"/>
   <text width="105" height="20" x="53" y="174" style="fill:#fff;" font-family="Arial" font-size="16px"> admin</text>
   <rect width="105" height="20" x="48" y="180" style="fill:#aea;stroke:black;"/>
   <text width="105" height="20" x="53" y="194" style="fill:black;" font-family="Arial" font-size="16px">id</text>
   <rect width="105" height="20" x="48" y="200" style="fill:none;stroke:black;"/>
   <text width="105" height="20" x="53" y="214" style="fill:black;" font-family="Arial" font-size="16px">UserName</text>
   <rect width="105" height="20" x="48" y="220" style="fill:none;stroke:black;"/>
   <text width="105" height="20" x="53" y="234" style="fill:black;" font-family="Arial" font-size="16px">Password</text>
   <rect width="105" height="20" x="48" y="240" style="fill:none;stroke:black;"/>
   <text width="105" height="20" x="53" y="254" style="fill:black;" font-family="Arial" font-size="16px">updationDate</text>
   <rect width="97" height="20" x="45" y="578" style="fill:#007;stroke:black;"/>
   <text width="97" height="20" x="50" y="592" style="fill:#fff;" font-family="Arial" font-size="16px"> tblbooking</text>
   <rect width="97" height="20" x="45" y="598" style="fill:#aea;stroke:black;"/>
   <text width="97" height="20" x="50" y="612" style="fill:black;" font-family="Arial" font-size="16px">id</text>
   <rect width="97" height="20" x="45" y="618" style="fill:none;stroke:black;"/>
   <text width="97" height="20" x="50" y="632" style="fill:black;" font-family="Arial" font-size="16px">userEmail</text>
   <rect width="97" height="20" x="45" y="638" style="fill:none;stroke:black;"/>
   <text width="97" height="20" x="50" y="652" style="fill:black;" font-family="Arial" font-size="16px">VehicleId</text>
   <rect width="97" height="20" x="45" y="658" style="fill:none;stroke:black;"/>
   <text width="97" height="20" x="50" y="672" style="fill:black;" font-family="Arial" font-size="16px">FromDate</text>
   <rect width="97" height="20" x="45" y="678" style="fill:none;stroke:black;"/>
   <text width="97" height="20" x="50" y="692" style="fill:black;" font-family="Arial" font-size="16px">ToDate</text>
   <rect width="97" height="20" x="45" y="698" style="fill:none;stroke:black;"/>
   <text width="97" height="20" x="50" y="712" style="fill:black;" font-family="Arial" font-size="16px">message</text>
   <rect width="97" height="20" x="45" y="718" style="fill:none;stroke:black;"/>
   <text width="97" height="20" x="50" y="732" style="fill:black;" font-family="Arial" font-size="16px">Status</text>
   <rect width="97" height="20" x="45" y="738" style="fill:none;stroke:black;"/>
   <text width="97" height="20" x="50" y="752" style="fill:black;" font-family="Arial" font-size="16px">PostingDate</text>
   <rect width="108" height="20" x="44" y="459" style="fill:#007;stroke:black;"/>
   <text width="108" height="20" x="49" y="473" style="fill:#fff;" font-family="Arial" font-size="16px"> tblbrands</text>
   <rect width="108" height="20" x="44" y="479" style="fill:#aea;stroke:black;"/>
   <text width="108" height="20" x="49" y="493" style="fill:black;" font-family="Arial" font-size="16px">id</text>
   <rect width="108" height="20" x="44" y="499" style="fill:none;stroke:black;"/>
   <text width="108" height="20" x="49" y="513" style="fill:black;" font-family="Arial" font-size="16px">BrandName</text>
   <rect width="108" height="20" x="44" y="519" style="fill:none;stroke:black;"/>
   <text width="108" height="20" x="49" y="533" style="fill:black;" font-family="Arial" font-size="16px">CreationDate</text>
   <rect width="108" height="20" x="44" y="539" style="fill:none;stroke:black;"/>
   <text width="108" height="20" x="49" y="553" style="fill:black;" font-family="Arial" font-size="16px">UpdationDate</text>
   <rect width="121" height="20" x="220" y="579" style="fill:#007;stroke:black;"/>
   <text width="121" height="20" x="225" y="593" style="fill:#fff;" font-family="Arial" font-size="16px"> tblcontactusinfo</text>
   <rect width="121" height="20" x="220" y="599" style="fill:#aea;stroke:black;"/>
   <text width="121" height="20" x="225" y="613" style="fill:black;" font-family="Arial" font-size="16px">id</text>
   <rect width="121" height="20" x="220" y="619" style="fill:none;stroke:black;"/>
   <text width="121" height="20" x="225" y="633" style="fill:black;" font-family="Arial" font-size="16px">Address</text>
   <rect width="121" height="20" x="220" y="639" style="fill:none;stroke:black;"/>
   <text width="121" height="20" x="225" y="653" style="fill:black;" font-family="Arial" font-size="16px">EmailId</text>
   <rect width="121" height="20" x="220" y="659" style="fill:none;stroke:black;"/>
   <text width="121" height="20" x="225" y="673" style="fill:black;" font-family="Arial" font-size="16px">ContactNo</text>
   <rect width="136" height="20" x="45" y="277" style="fill:#007;stroke:black;"/>
   <text width="136" height="20" x="50" y="291" style="fill:#fff;" font-family="Arial" font-size="16px"> tblcontactusquery</text>
   <rect width="136" height="20" x="45" y="297" style="fill:#aea;stroke:black;"/>
   <text width="136" height="20" x="50" y="311" style="fill:black;" font-family="Arial" font-size="16px">id</text>
   <rect width="136" height="20" x="45" y="317" style="fill:none;stroke:black;"/>
   <text width="136" height="20" x="50" y="331" style="fill:black;" font-family="Arial" font-size="16px">name</text>
   <rect width="136" height="20" x="45" y="337" style="fill:none;stroke:black;"/>
   <text width="136" height="20" x="50" y="351" style="fill:black;" font-family="Arial" font-size="16px">EmailId</text>
   <rect width="136" height="20" x="45" y="357" style="fill:none;stroke:black;"/>
   <text width="136" height="20" x="50" y="371" style="fill:black;" font-family="Arial" font-size="16px">ContactNumber</text>
   <rect width="136" height="20" x="45" y="377" style="fill:none;stroke:black;"/>
   <text width="136" height="20" x="50" y="391" style="fill:black;" font-family="Arial" font-size="16px">Message</text>
   <rect width="136" height="20" x="45" y="397" style="fill:none;stroke:black;"/>
   <text width="136" height="20" x="50" y="411" style="fill:black;" font-family="Arial" font-size="16px">PostingDate</text>
   <rect width="136" height="20" x="45" y="417" style="fill:none;stroke:black;"/>
   <text width="136" height="20" x="50" y="431" style="fill:black;" font-family="Arial" font-size="16px">status</text>
   <rect width="90" height="20" x="231" y="459" style="fill:#007;stroke:black;"/>
   <text width="90" height="20" x="236" y="473" style="fill:#fff;" font-family="Arial" font-size="16px"> tblpages</text>
   <rect width="90" height="20" x="231" y="479" style="fill:#aea;stroke:black;"/>
   <text width="90" height="20" x="236" y="493" style="fill:black;" font-family="Arial" font-size="16px">id</text>
   <rect width="90" height="20" x="231" y="499" style="fill:none;stroke:black;"/>
   <text width="90" height="20" x="236" y="513" style="fill:black;" font-family="Arial" font-size="16px">PageName</text>
   <rect width="90" height="20" x="231" y="519" style="fill:none;stroke:black;"/>
   <text width="90" height="20" x="236" y="533" style="fill:black;" font-family="Arial" font-size="16px">type</text>
   <rect width="90" height="20" x="231" y="539" style="fill:none;stroke:black;"/>
   <text width="90" height="20" x="236" y="553" style="fill:black;" font-family="Arial" font-size="16px">detail</text>
   <rect width="127" height="20" x="264" y="278" style="fill:#007;stroke:black;"/>
   <text width="127" height="20" x="269" y="292" style="fill:#fff;" font-family="Arial" font-size="16px"> tblsubscribers</text>
   <rect width="127" height="20" x="264" y="298" style="fill:#aea;stroke:black;"/>
   <text width="127" height="20" x="269" y="312" style="fill:black;" font-family="Arial" font-size="16px">id</text>
   <rect width="127" height="20" x="264" y="318" style="fill:none;stroke:black;"/>
   <text width="127" height="20" x="269" y="332" style="fill:black;" font-family="Arial" font-size="16px">SubscriberEmail</text>
   <rect width="127" height="20" x="264" y="338" style="fill:none;stroke:black;"/>
   <text width="127" height="20" x="269" y="352" style="fill:black;" font-family="Arial" font-size="16px">PostingDate</text>
   <rect width="104" height="20" x="46" y="14" style="fill:#007;stroke:black;"/>
   <text width="104" height="20" x="51" y="28" style="fill:#fff;" font-family="Arial" font-size="16px"> tbltestimonial</text>
   <rect width="104" height="20" x="46" y="34" style="fill:#aea;stroke:black;"/>
   <text width="104" height="20" x="51" y="48" style="fill:black;" font-family="Arial" font-size="16px">id</text>
   <rect width="104" height="20" x="46" y="54" style="fill:none;stroke:black;"/>
   <text width="104" height="20" x="51" y="68" style="fill:black;" font-family="Arial" font-size="16px">UserEmail</text>
   <rect width="104" height="20" x="46" y="74" style="fill:none;stroke:black;"/>
   <text width="104" height="20" x="51" y="88" style="fill:black;" font-family="Arial" font-size="16px">Testimonial</text>
   <rect width="104" height="20" x="46" y="94" style="fill:none;stroke:black;"/>
   <text width="104" height="20" x="51" y="108" style="fill:black;" font-family="Arial" font-size="16px">PostingDate</text>
   <rect width="104" height="20" x="46" y="114" style="fill:none;stroke:black;"/>
   <text width="104" height="20" x="51" y="128" style="fill:black;" font-family="Arial" font-size="16px">status</text>
   <rect width="108" height="20" x="265" y="14" style="fill:#007;stroke:black;"/>
   <text width="108" height="20" x="270" y="28" style="fill:#fff;" font-family="Arial" font-size="16px"> tblusers</text>
   <rect width="108" height="20" x="265" y="34" style="fill:#aea;stroke:black;"/>
   <text width="108" height="20" x="270" y="48" style="fill:black;" font-family="Arial" font-size="16px">id</text>
   <rect width="108" height="20" x="265" y="54" style="fill:none;stroke:black;"/>
   <text width="108" height="20" x="270" y="68" style="fill:black;" font-family="Arial" font-size="16px">FullName</text>
   <rect width="108" height="20" x="265" y="74" style="fill:none;stroke:black;"/>
   <text width="108" height="20" x="270" y="88" style="fill:black;" font-family="Arial" font-size="16px">EmailId</text>
   <rect width="108" height="20" x="265" y="94" style="fill:none;stroke:black;"/>
   <text width="108" height="20" x="270" y="108" style="fill:black;" font-family="Arial" font-size="16px">Password</text>
   <rect width="108" height="20" x="265" y="114" style="fill:none;stroke:black;"/>
   <text width="108" height="20" x="270" y="128" style="fill:black;" font-family="Arial" font-size="16px">ContactNo</text>
   <rect width="108" height="20" x="265" y="134" style="fill:none;stroke:black;"/>
   <text width="108" height="20" x="270" y="148" style="fill:black;" font-family="Arial" font-size="16px">dob</text>
   <rect width="108" height="20" x="265" y="154" style="fill:none;stroke:black;"/>
   <text width="108" height="20" x="270" y="168" style="fill:black;" font-family="Arial" font-size="16px">Address</text>
   <rect width="108" height="20" x="265" y="174" style="fill:none;stroke:black;"/>
   <text width="108" height="20" x="270" y="188" style="fill:black;" font-family="Arial" font-size="16px">City</text>
   <rect width="108" height="20" x="265" y="194" style="fill:none;stroke:black;"/>
   <text width="108" height="20" x="270" y="208" style="fill:black;" font-family="Arial" font-size="16px">Country</text>
   <rect width="108" height="20" x="265" y="214" style="fill:none;stroke:black;"/>
   <text width="108" height="20" x="270" y="228" style="fill:black;" font-family="Arial" font-size="16px">RegDate</text>
   <rect width="108" height="20" x="265" y="234" style="fill:none;stroke:black;"/>
   <text width="108" height="20" x="270" y="248" style="fill:black;" font-family="Arial" font-size="16px">UpdationDate</text>
   <rect width="180" height="20" x="481" y="13" style="fill:#007;stroke:black;"/>
   <text width="180" height="20" x="486" y="27" style="fill:#fff;" font-family="Arial" font-size="16px"> tblvehicles</text>
   <rect width="180" height="20" x="481" y="33" style="fill:#aea;stroke:black;"/>
   <text width="180" height="20" x="486" y="47" style="fill:black;" font-family="Arial" font-size="16px">id</text>
   <rect width="180" height="20" x="481" y="53" style="fill:none;stroke:black;"/>
   <text width="180" height="20" x="486" y="67" style="fill:black;" font-family="Arial" font-size="16px">VehiclesTitle</text>
   <rect width="180" height="20" x="481" y="73" style="fill:none;stroke:black;"/>
   <text width="180" height="20" x="486" y="87" style="fill:black;" font-family="Arial" font-size="16px">VehiclesBrand</text>
   <rect width="180" height="20" x="481" y="93" style="fill:none;stroke:black;"/>
   <text width="180" height="20" x="486" y="107" style="fill:black;" font-family="Arial" font-size="16px">VehiclesOverview</text>
   <rect width="180" height="20" x="481" y="113" style="fill:none;stroke:black;"/>
   <text width="180" height="20" x="486" y="127" style="fill:black;" font-family="Arial" font-size="16px">PricePerDay</text>
   <rect width="180" height="20" x="481" y="133" style="fill:none;stroke:black;"/>
   <text width="180" height="20" x="486" y="147" style="fill:black;" font-family="Arial" font-size="16px">FuelType</text>
   <rect width="180" height="20" x="481" y="153" style="fill:none;stroke:black;"/>
   <text width="180" height="20" x="486" y="167" style="fill:black;" font-family="Arial" font-size="16px">ModelYear</text>
   <rect width="180" height="20" x="481" y="173" style="fill:none;stroke:black;"/>
   <text width="180" height="20" x="486" y="187" style="fill:black;" font-family="Arial" font-size="16px">SeatingCapacity</text>
   <rect width="180" height="20" x="481" y="193" style="fill:none;stroke:black;"/>
   <text width="180" height="20" x="486" y="207" style="fill:black;" font-family="Arial" font-size="16px">Vimage1</text>
   <rect width="180" height="20" x="481" y="213" style="fill:none;stroke:black;"/>
   <text width="180" height="20" x="486" y="227" style="fill:black;" font-family="Arial" font-size="16px">Vimage2</text>
   <rect width="180" height="20" x="481" y="233" style="fill:none;stroke:black;"/>
   <text width="180" height="20" x="486" y="247" style="fill:black;" font-family="Arial" font-size="16px">Vimage3</text>
   <rect width="180" height="20" x="481" y="253" style="fill:none;stroke:black;"/>
   <text width="180" height="20" x="486" y="267" style="fill:black;" font-family="Arial" font-size="16px">Vimage4</text>
   <rect width="180" height="20" x="481" y="273" style="fill:none;stroke:black;"/>
   <text width="180" height="20" x="486" y="287" style="fill:black;" font-family="Arial" font-size="16px">Vimage5</text>
   <rect width="180" height="20" x="481" y="293" style="fill:none;stroke:black;"/>
   <text width="180" height="20" x="486" y="307" style="fill:black;" font-family="Arial" font-size="16px">AirConditioner</text>
   <rect width="180" height="20" x="481" y="313" style="fill:none;stroke:black;"/>
   <text width="180" height="20" x="486" y="327" style="fill:black;" font-family="Arial" font-size="16px">PowerDoorLocks</text>
   <rect width="180" height="20" x="481" y="333" style="fill:none;stroke:black;"/>
   <text width="180" height="20" x="486" y="347" style="fill:black;" font-family="Arial" font-size="16px">AntiLockBrakingSystem</text>
   <rect width="180" height="20" x="481" y="353" style="fill:none;stroke:black;"/>
   <text width="180" height="20" x="486" y="367" style="fill:black;" font-family="Arial" font-size="16px">BrakeAssist</text>
   <rect width="180" height="20" x="481" y="373" style="fill:none;stroke:black;"/>
   <text width="180" height="20" x="486" y="387" style="fill:black;" font-family="Arial" font-size="16px">PowerSteering</text>
   <rect width="180" height="20" x="481" y="393" style="fill:none;stroke:black;"/>
   <text width="180" height="20" x="486" y="407" style="fill:black;" font-family="Arial" font-size="16px">DriverAirbag</text>
   <rect width="180" height="20" x="481" y="413" style="fill:none;stroke:black;"/>
   <text width="180" height="20" x="486" y="427" style="fill:black;" font-family="Arial" font-size="16px">PassengerAirbag</text>
   <rect width="180" height="20" x="481" y="433" style="fill:none;stroke:black;"/>
   <text width="180" height="20" x="486" y="447" style="fill:black;" font-family="Arial" font-size="16px">PowerWindows</text>
   <rect width="180" height="20" x="481" y="453" style="fill:none;stroke:black;"/>
   <text width="180" height="20" x="486" y="467" style="fill:black;" font-family="Arial" font-size="16px">CDPlayer</text>
   <rect width="180" height="20" x="481" y="473" style="fill:none;stroke:black;"/>
   <text width="180" height="20" x="486" y="487" style="fill:black;" font-family="Arial" font-size="16px">CentralLocking</text>
   <rect width="180" height="20" x="481" y="493" style="fill:none;stroke:black;"/>
   <text width="180" height="20" x="486" y="507" style="fill:black;" font-family="Arial" font-size="16px">CrashSensor</text>
   <rect width="180" height="20" x="481" y="513" style="fill:none;stroke:black;"/>
   <text width="180" height="20" x="486" y="527" style="fill:black;" font-family="Arial" font-size="16px">LeatherSeats</text>
   <rect width="180" height="20" x="481" y="533" style="fill:none;stroke:black;"/>
   <text width="180" height="20" x="486" y="547" style="fill:black;" font-family="Arial" font-size="16px">RegDate</text>
   <rect width="180" height="20" x="481" y="553" style="fill:none;stroke:black;"/>
   <text width="180" height="20" x="486" y="567" style="fill:black;" font-family="Arial" font-size="16px">UpdationDate</text>
</svg>
